<svg width="801" height="217" viewBox="0 0 801 217" fill="none" xmlns="http://www.w3.org/2000/svg">
<path d="M783.104 140.544L755.968 137.216L772.864 5.63199L800.256 9.72798L783.104 140.544ZM754.432 209.152L751.104 168.448L778.24 166.144L781.568 207.104L754.432 209.152Z" fill="black"/>
<path d="M617.728 153.856L654.592 135.68L642.304 89.344L571.136 98.56L572.928 123.136L598.016 113.408L606.464 135.936L574.72 148.224L576.512 171.008L572.416 181.248L530.944 215.808L515.328 197.376L552.192 166.656L551.424 157.184L516.352 170.752L507.392 148.48L549.376 132.352L547.072 101.632L504.576 107.008L501.504 83.2L545.28 77.568L542.976 48.128L511.744 63.232L501.248 41.728L583.936 1.27997L594.432 23.04L566.528 36.608L569.344 74.496L636.16 65.792L623.616 18.688L646.912 12.8L660.224 62.72L685.312 59.392L671.232 30.208L692.992 19.712L714.496 64L705.024 81.152L666.368 86.272L676.608 124.672L694.784 115.712L705.536 137.472L683.008 148.48L698.368 206.08L675.072 212.48L660.992 159.488L628.224 175.36L617.728 153.856Z" fill="black"/>
<path d="M426.752 42.24L436.736 70.4L413.952 78.336L400.384 40.192L380.416 38.656L372.48 52.224L366.336 48.64L380.672 67.328L364.032 80.128L459.52 105.216L453.376 128.768L392.96 112.64L393.216 135.424L311.552 137.728L311.04 120.32L256 162.56L241.152 143.36L365.824 48.384L351.488 39.68L375.296 0L396.032 12.288L394.24 15.36L462.336 20.48L460.288 44.8L426.752 42.24ZM289.536 205.824L283.648 145.664L307.712 143.36L308.48 149.504L420.352 142.336L432.896 157.696L421.888 198.4L411.392 207.36L302.592 216.576L289.536 205.824ZM320.768 47.616L333.056 66.048L312.832 79.36L291.584 47.104L280.832 46.848L264.448 78.336L243.2 67.328L278.272 0.255997L299.52 11.776L293.376 23.04L345.6 24.064L345.088 48.128L320.768 47.616ZM312.576 191.744L400.896 184.064L404.992 167.68L310.528 173.568L312.576 191.744ZM320.512 113.152L388.608 111.616L339.712 98.56L320.512 113.152Z" fill="black"/>
<path d="M117.248 126.464L117.504 84.48L75.008 86.528L76.8 126.464H117.248ZM65.28 150.528L53.248 139.264L50.176 75.52L61.696 62.976L129.024 59.904L141.568 71.936L141.056 138.496L129.024 150.528H65.28ZM37.888 178.176L156.928 174.336L166.4 38.4L25.344 38.144L37.888 178.176ZM14.848 191.744L0 27.136L12.288 14.08L179.2 14.336L191.488 27.136L179.968 187.136L168.448 198.4L27.136 202.496L14.848 191.744Z" fill="black"/>
</svg>
